<mxfile host="app.diagrams.net" agent="Mozilla/5.0 (Windows NT 10.0; Win64; x64) AppleWebKit/537.36 (KHTML, like Gecko) Chrome/130.0.0.0 Safari/537.36" version="24.7.17">
  <diagram name="PÃ¡gina-1" id="ic_v29Yc6d74V_fCNOCP">
    <mxGraphModel dx="2730" dy="1875" grid="1" gridSize="10" guides="1" tooltips="1" connect="1" arrows="1" fold="1" page="1" pageScale="1" pageWidth="827" pageHeight="1169" math="0" shadow="0">
      <root>
        <mxCell id="0" />
        <mxCell id="1" parent="0" />
        <mxCell id="iN3SEvdDUoiOJjXTP8e4-11" style="edgeStyle=orthogonalEdgeStyle;rounded=0;orthogonalLoop=1;jettySize=auto;html=1;exitX=0;exitY=0.5;exitDx=0;exitDy=0;" edge="1" parent="1" source="iN3SEvdDUoiOJjXTP8e4-1" target="iN3SEvdDUoiOJjXTP8e4-3">
          <mxGeometry relative="1" as="geometry" />
        </mxCell>
        <mxCell id="iN3SEvdDUoiOJjXTP8e4-17" style="edgeStyle=orthogonalEdgeStyle;rounded=0;orthogonalLoop=1;jettySize=auto;html=1;exitX=0.5;exitY=1;exitDx=0;exitDy=0;" edge="1" parent="1" source="iN3SEvdDUoiOJjXTP8e4-1" target="iN3SEvdDUoiOJjXTP8e4-7">
          <mxGeometry relative="1" as="geometry" />
        </mxCell>
        <mxCell id="iN3SEvdDUoiOJjXTP8e4-19" style="edgeStyle=orthogonalEdgeStyle;rounded=0;orthogonalLoop=1;jettySize=auto;html=1;exitX=1;exitY=0.5;exitDx=0;exitDy=0;entryX=0;entryY=0.5;entryDx=0;entryDy=0;" edge="1" parent="1" source="iN3SEvdDUoiOJjXTP8e4-1" target="iN3SEvdDUoiOJjXTP8e4-9">
          <mxGeometry relative="1" as="geometry" />
        </mxCell>
        <mxCell id="iN3SEvdDUoiOJjXTP8e4-1" value="AUTOR" style="rounded=0;whiteSpace=wrap;html=1;" vertex="1" parent="1">
          <mxGeometry x="430" y="60" width="70" height="50" as="geometry" />
        </mxCell>
        <mxCell id="iN3SEvdDUoiOJjXTP8e4-15" style="edgeStyle=orthogonalEdgeStyle;rounded=0;orthogonalLoop=1;jettySize=auto;html=1;exitX=0;exitY=1;exitDx=0;exitDy=0;entryX=1;entryY=0.5;entryDx=0;entryDy=0;" edge="1" parent="1" source="iN3SEvdDUoiOJjXTP8e4-2" target="iN3SEvdDUoiOJjXTP8e4-5">
          <mxGeometry relative="1" as="geometry" />
        </mxCell>
        <mxCell id="iN3SEvdDUoiOJjXTP8e4-16" style="edgeStyle=orthogonalEdgeStyle;rounded=0;orthogonalLoop=1;jettySize=auto;html=1;exitX=0;exitY=0.5;exitDx=0;exitDy=0;entryX=1;entryY=0.5;entryDx=0;entryDy=0;" edge="1" parent="1" source="iN3SEvdDUoiOJjXTP8e4-2" target="iN3SEvdDUoiOJjXTP8e4-6">
          <mxGeometry relative="1" as="geometry" />
        </mxCell>
        <mxCell id="iN3SEvdDUoiOJjXTP8e4-21" style="edgeStyle=orthogonalEdgeStyle;rounded=0;orthogonalLoop=1;jettySize=auto;html=1;exitX=1;exitY=0.5;exitDx=0;exitDy=0;entryX=0;entryY=0.5;entryDx=0;entryDy=0;" edge="1" parent="1" source="iN3SEvdDUoiOJjXTP8e4-2" target="iN3SEvdDUoiOJjXTP8e4-3">
          <mxGeometry relative="1" as="geometry" />
        </mxCell>
        <mxCell id="iN3SEvdDUoiOJjXTP8e4-2" value="LIBROS" style="rounded=0;whiteSpace=wrap;html=1;" vertex="1" parent="1">
          <mxGeometry x="140" y="60" width="80" height="50" as="geometry" />
        </mxCell>
        <mxCell id="iN3SEvdDUoiOJjXTP8e4-12" style="edgeStyle=orthogonalEdgeStyle;rounded=0;orthogonalLoop=1;jettySize=auto;html=1;exitX=0;exitY=0.5;exitDx=0;exitDy=0;entryX=1;entryY=0.5;entryDx=0;entryDy=0;" edge="1" parent="1" source="iN3SEvdDUoiOJjXTP8e4-3" target="iN3SEvdDUoiOJjXTP8e4-2">
          <mxGeometry relative="1" as="geometry" />
        </mxCell>
        <mxCell id="iN3SEvdDUoiOJjXTP8e4-22" style="edgeStyle=orthogonalEdgeStyle;rounded=0;orthogonalLoop=1;jettySize=auto;html=1;exitX=1;exitY=0.5;exitDx=0;exitDy=0;" edge="1" parent="1" source="iN3SEvdDUoiOJjXTP8e4-3" target="iN3SEvdDUoiOJjXTP8e4-1">
          <mxGeometry relative="1" as="geometry" />
        </mxCell>
        <mxCell id="iN3SEvdDUoiOJjXTP8e4-3" value="TIENE" style="rhombus;whiteSpace=wrap;html=1;" vertex="1" parent="1">
          <mxGeometry x="280" y="45" width="80" height="80" as="geometry" />
        </mxCell>
        <mxCell id="iN3SEvdDUoiOJjXTP8e4-4" value="FORMATOS" style="ellipse;whiteSpace=wrap;html=1;" vertex="1" parent="1">
          <mxGeometry x="140" y="150" width="80" height="50" as="geometry" />
        </mxCell>
        <mxCell id="iN3SEvdDUoiOJjXTP8e4-5" value="IDIOMAS" style="ellipse;whiteSpace=wrap;html=1;" vertex="1" parent="1">
          <mxGeometry x="50" y="125" width="60" height="50" as="geometry" />
        </mxCell>
        <mxCell id="iN3SEvdDUoiOJjXTP8e4-6" value="TITULOS" style="ellipse;whiteSpace=wrap;html=1;" vertex="1" parent="1">
          <mxGeometry x="20" y="60" width="70" height="50" as="geometry" />
        </mxCell>
        <mxCell id="iN3SEvdDUoiOJjXTP8e4-7" value="NACIONALIDAD" style="ellipse;whiteSpace=wrap;html=1;" vertex="1" parent="1">
          <mxGeometry x="410" y="180" width="110" height="50" as="geometry" />
        </mxCell>
        <mxCell id="iN3SEvdDUoiOJjXTP8e4-8" value="GENERO" style="ellipse;whiteSpace=wrap;html=1;" vertex="1" parent="1">
          <mxGeometry x="520" y="125" width="90" height="60" as="geometry" />
        </mxCell>
        <mxCell id="iN3SEvdDUoiOJjXTP8e4-9" value="TITULO" style="ellipse;whiteSpace=wrap;html=1;" vertex="1" parent="1">
          <mxGeometry x="560" y="60" width="100" height="50" as="geometry" />
        </mxCell>
        <mxCell id="iN3SEvdDUoiOJjXTP8e4-14" style="edgeStyle=orthogonalEdgeStyle;rounded=0;orthogonalLoop=1;jettySize=auto;html=1;exitX=0.5;exitY=1;exitDx=0;exitDy=0;entryX=0.588;entryY=0.04;entryDx=0;entryDy=0;entryPerimeter=0;" edge="1" parent="1" source="iN3SEvdDUoiOJjXTP8e4-2" target="iN3SEvdDUoiOJjXTP8e4-4">
          <mxGeometry relative="1" as="geometry" />
        </mxCell>
        <mxCell id="iN3SEvdDUoiOJjXTP8e4-18" style="edgeStyle=orthogonalEdgeStyle;rounded=0;orthogonalLoop=1;jettySize=auto;html=1;exitX=1;exitY=1;exitDx=0;exitDy=0;entryX=0.011;entryY=0.367;entryDx=0;entryDy=0;entryPerimeter=0;" edge="1" parent="1" source="iN3SEvdDUoiOJjXTP8e4-1" target="iN3SEvdDUoiOJjXTP8e4-8">
          <mxGeometry relative="1" as="geometry" />
        </mxCell>
        <mxCell id="iN3SEvdDUoiOJjXTP8e4-35" style="edgeStyle=orthogonalEdgeStyle;rounded=0;orthogonalLoop=1;jettySize=auto;html=1;exitX=0;exitY=0.5;exitDx=0;exitDy=0;entryX=1;entryY=0.5;entryDx=0;entryDy=0;" edge="1" parent="1" source="iN3SEvdDUoiOJjXTP8e4-23" target="iN3SEvdDUoiOJjXTP8e4-25">
          <mxGeometry relative="1" as="geometry" />
        </mxCell>
        <mxCell id="iN3SEvdDUoiOJjXTP8e4-40" style="edgeStyle=orthogonalEdgeStyle;rounded=0;orthogonalLoop=1;jettySize=auto;html=1;exitX=1;exitY=1;exitDx=0;exitDy=0;entryX=0;entryY=0;entryDx=0;entryDy=0;" edge="1" parent="1" source="iN3SEvdDUoiOJjXTP8e4-23" target="iN3SEvdDUoiOJjXTP8e4-33">
          <mxGeometry relative="1" as="geometry" />
        </mxCell>
        <mxCell id="iN3SEvdDUoiOJjXTP8e4-23" value="PAIS" style="rounded=0;whiteSpace=wrap;html=1;" vertex="1" parent="1">
          <mxGeometry x="440" y="-180" width="110" height="50" as="geometry" />
        </mxCell>
        <mxCell id="iN3SEvdDUoiOJjXTP8e4-36" style="edgeStyle=orthogonalEdgeStyle;rounded=0;orthogonalLoop=1;jettySize=auto;html=1;exitX=1;exitY=0.5;exitDx=0;exitDy=0;entryX=0;entryY=0.5;entryDx=0;entryDy=0;" edge="1" parent="1" source="iN3SEvdDUoiOJjXTP8e4-24" target="iN3SEvdDUoiOJjXTP8e4-25">
          <mxGeometry relative="1" as="geometry" />
        </mxCell>
        <mxCell id="iN3SEvdDUoiOJjXTP8e4-41" style="edgeStyle=orthogonalEdgeStyle;rounded=0;orthogonalLoop=1;jettySize=auto;html=1;exitX=0.5;exitY=1;exitDx=0;exitDy=0;entryX=0.5;entryY=0;entryDx=0;entryDy=0;" edge="1" parent="1" source="iN3SEvdDUoiOJjXTP8e4-24" target="iN3SEvdDUoiOJjXTP8e4-26">
          <mxGeometry relative="1" as="geometry" />
        </mxCell>
        <mxCell id="iN3SEvdDUoiOJjXTP8e4-24" value="CIUDADES" style="rounded=0;whiteSpace=wrap;html=1;" vertex="1" parent="1">
          <mxGeometry x="110" y="-180" width="110" height="50" as="geometry" />
        </mxCell>
        <mxCell id="iN3SEvdDUoiOJjXTP8e4-34" style="edgeStyle=orthogonalEdgeStyle;rounded=0;orthogonalLoop=1;jettySize=auto;html=1;exitX=0;exitY=0.5;exitDx=0;exitDy=0;entryX=1;entryY=0.5;entryDx=0;entryDy=0;" edge="1" parent="1" source="iN3SEvdDUoiOJjXTP8e4-25" target="iN3SEvdDUoiOJjXTP8e4-24">
          <mxGeometry relative="1" as="geometry" />
        </mxCell>
        <mxCell id="iN3SEvdDUoiOJjXTP8e4-37" style="edgeStyle=orthogonalEdgeStyle;rounded=0;orthogonalLoop=1;jettySize=auto;html=1;exitX=1;exitY=0.5;exitDx=0;exitDy=0;entryX=0;entryY=0.5;entryDx=0;entryDy=0;" edge="1" parent="1" source="iN3SEvdDUoiOJjXTP8e4-25" target="iN3SEvdDUoiOJjXTP8e4-23">
          <mxGeometry relative="1" as="geometry" />
        </mxCell>
        <mxCell id="iN3SEvdDUoiOJjXTP8e4-25" value="TIENE" style="rhombus;whiteSpace=wrap;html=1;" vertex="1" parent="1">
          <mxGeometry x="280" y="-195" width="80" height="80" as="geometry" />
        </mxCell>
        <mxCell id="iN3SEvdDUoiOJjXTP8e4-26" value="CULTURA" style="ellipse;whiteSpace=wrap;html=1;" vertex="1" parent="1">
          <mxGeometry x="125" y="-70" width="80" height="50" as="geometry" />
        </mxCell>
        <mxCell id="iN3SEvdDUoiOJjXTP8e4-27" value="RASGOS DE LAS PERSONAS" style="ellipse;whiteSpace=wrap;html=1;" vertex="1" parent="1">
          <mxGeometry x="-10" y="-90" width="120" height="60" as="geometry" />
        </mxCell>
        <mxCell id="iN3SEvdDUoiOJjXTP8e4-28" value="DIRECCIONES" style="ellipse;whiteSpace=wrap;html=1;" vertex="1" parent="1">
          <mxGeometry x="-40" y="-185" width="100" height="60" as="geometry" />
        </mxCell>
        <mxCell id="iN3SEvdDUoiOJjXTP8e4-30" value="COORDENADAS" style="ellipse;whiteSpace=wrap;html=1;" vertex="1" parent="1">
          <mxGeometry x="420" y="-90" width="104" height="65" as="geometry" />
        </mxCell>
        <mxCell id="iN3SEvdDUoiOJjXTP8e4-32" value="IDEOLOGIA" style="ellipse;whiteSpace=wrap;html=1;" vertex="1" parent="1">
          <mxGeometry x="590" y="-165" width="90" height="50" as="geometry" />
        </mxCell>
        <mxCell id="iN3SEvdDUoiOJjXTP8e4-33" value="PAISAJES" style="ellipse;whiteSpace=wrap;html=1;" vertex="1" parent="1">
          <mxGeometry x="560" y="-85" width="75" height="50" as="geometry" />
        </mxCell>
        <mxCell id="iN3SEvdDUoiOJjXTP8e4-38" style="edgeStyle=orthogonalEdgeStyle;rounded=0;orthogonalLoop=1;jettySize=auto;html=1;exitX=1;exitY=0.5;exitDx=0;exitDy=0;entryX=0.061;entryY=0.295;entryDx=0;entryDy=0;entryPerimeter=0;" edge="1" parent="1" source="iN3SEvdDUoiOJjXTP8e4-23" target="iN3SEvdDUoiOJjXTP8e4-32">
          <mxGeometry relative="1" as="geometry" />
        </mxCell>
        <mxCell id="iN3SEvdDUoiOJjXTP8e4-39" style="edgeStyle=orthogonalEdgeStyle;rounded=0;orthogonalLoop=1;jettySize=auto;html=1;exitX=0.5;exitY=1;exitDx=0;exitDy=0;entryX=0.726;entryY=0.054;entryDx=0;entryDy=0;entryPerimeter=0;" edge="1" parent="1" source="iN3SEvdDUoiOJjXTP8e4-23" target="iN3SEvdDUoiOJjXTP8e4-30">
          <mxGeometry relative="1" as="geometry" />
        </mxCell>
        <mxCell id="iN3SEvdDUoiOJjXTP8e4-42" style="edgeStyle=orthogonalEdgeStyle;rounded=0;orthogonalLoop=1;jettySize=auto;html=1;exitX=0;exitY=1;exitDx=0;exitDy=0;entryX=0.75;entryY=0;entryDx=0;entryDy=0;entryPerimeter=0;" edge="1" parent="1" source="iN3SEvdDUoiOJjXTP8e4-24" target="iN3SEvdDUoiOJjXTP8e4-27">
          <mxGeometry relative="1" as="geometry" />
        </mxCell>
        <mxCell id="iN3SEvdDUoiOJjXTP8e4-44" style="edgeStyle=orthogonalEdgeStyle;rounded=0;orthogonalLoop=1;jettySize=auto;html=1;exitX=0;exitY=0.5;exitDx=0;exitDy=0;entryX=1.03;entryY=0.662;entryDx=0;entryDy=0;entryPerimeter=0;" edge="1" parent="1" source="iN3SEvdDUoiOJjXTP8e4-24" target="iN3SEvdDUoiOJjXTP8e4-28">
          <mxGeometry relative="1" as="geometry" />
        </mxCell>
        <mxCell id="iN3SEvdDUoiOJjXTP8e4-59" style="edgeStyle=orthogonalEdgeStyle;rounded=0;orthogonalLoop=1;jettySize=auto;html=1;exitX=0;exitY=0.5;exitDx=0;exitDy=0;entryX=1;entryY=0.5;entryDx=0;entryDy=0;" edge="1" parent="1" source="iN3SEvdDUoiOJjXTP8e4-45" target="iN3SEvdDUoiOJjXTP8e4-47">
          <mxGeometry relative="1" as="geometry" />
        </mxCell>
        <mxCell id="iN3SEvdDUoiOJjXTP8e4-62" style="edgeStyle=orthogonalEdgeStyle;rounded=0;orthogonalLoop=1;jettySize=auto;html=1;exitX=0.5;exitY=1;exitDx=0;exitDy=0;entryX=0.5;entryY=0;entryDx=0;entryDy=0;" edge="1" parent="1" source="iN3SEvdDUoiOJjXTP8e4-45" target="iN3SEvdDUoiOJjXTP8e4-51">
          <mxGeometry relative="1" as="geometry" />
        </mxCell>
        <mxCell id="iN3SEvdDUoiOJjXTP8e4-63" style="edgeStyle=orthogonalEdgeStyle;rounded=0;orthogonalLoop=1;jettySize=auto;html=1;exitX=1;exitY=1;exitDx=0;exitDy=0;entryX=0;entryY=0;entryDx=0;entryDy=0;" edge="1" parent="1" source="iN3SEvdDUoiOJjXTP8e4-45" target="iN3SEvdDUoiOJjXTP8e4-54">
          <mxGeometry relative="1" as="geometry" />
        </mxCell>
        <mxCell id="iN3SEvdDUoiOJjXTP8e4-45" value="PROYECTOS" style="rounded=0;whiteSpace=wrap;html=1;" vertex="1" parent="1">
          <mxGeometry x="440" y="-390" width="120" height="60" as="geometry" />
        </mxCell>
        <mxCell id="iN3SEvdDUoiOJjXTP8e4-56" style="edgeStyle=orthogonalEdgeStyle;rounded=0;orthogonalLoop=1;jettySize=auto;html=1;exitX=1;exitY=0.5;exitDx=0;exitDy=0;entryX=0;entryY=0.5;entryDx=0;entryDy=0;" edge="1" parent="1" source="iN3SEvdDUoiOJjXTP8e4-46" target="iN3SEvdDUoiOJjXTP8e4-47">
          <mxGeometry relative="1" as="geometry" />
        </mxCell>
        <mxCell id="iN3SEvdDUoiOJjXTP8e4-66" style="edgeStyle=orthogonalEdgeStyle;rounded=0;orthogonalLoop=1;jettySize=auto;html=1;exitX=0;exitY=0.5;exitDx=0;exitDy=0;entryX=1;entryY=0.5;entryDx=0;entryDy=0;" edge="1" parent="1" source="iN3SEvdDUoiOJjXTP8e4-46" target="iN3SEvdDUoiOJjXTP8e4-50">
          <mxGeometry relative="1" as="geometry" />
        </mxCell>
        <mxCell id="iN3SEvdDUoiOJjXTP8e4-46" value="EMPLEADO" style="rounded=0;whiteSpace=wrap;html=1;" vertex="1" parent="1">
          <mxGeometry x="105" y="-390" width="120" height="60" as="geometry" />
        </mxCell>
        <mxCell id="iN3SEvdDUoiOJjXTP8e4-55" style="edgeStyle=orthogonalEdgeStyle;rounded=0;orthogonalLoop=1;jettySize=auto;html=1;exitX=0;exitY=0.5;exitDx=0;exitDy=0;entryX=1;entryY=0.5;entryDx=0;entryDy=0;" edge="1" parent="1" source="iN3SEvdDUoiOJjXTP8e4-47" target="iN3SEvdDUoiOJjXTP8e4-46">
          <mxGeometry relative="1" as="geometry" />
        </mxCell>
        <mxCell id="iN3SEvdDUoiOJjXTP8e4-57" style="edgeStyle=orthogonalEdgeStyle;rounded=0;orthogonalLoop=1;jettySize=auto;html=1;exitX=1;exitY=0.5;exitDx=0;exitDy=0;entryX=0;entryY=0.5;entryDx=0;entryDy=0;" edge="1" parent="1" source="iN3SEvdDUoiOJjXTP8e4-47" target="iN3SEvdDUoiOJjXTP8e4-45">
          <mxGeometry relative="1" as="geometry" />
        </mxCell>
        <mxCell id="iN3SEvdDUoiOJjXTP8e4-47" value="PARTICIPA" style="rhombus;whiteSpace=wrap;html=1;" vertex="1" parent="1">
          <mxGeometry x="280" y="-400" width="80" height="80" as="geometry" />
        </mxCell>
        <mxCell id="iN3SEvdDUoiOJjXTP8e4-48" value="ESTATURA" style="ellipse;whiteSpace=wrap;html=1;" vertex="1" parent="1">
          <mxGeometry x="140" y="-290" width="80" height="50" as="geometry" />
        </mxCell>
        <mxCell id="iN3SEvdDUoiOJjXTP8e4-49" value="NOMBRE" style="ellipse;whiteSpace=wrap;html=1;" vertex="1" parent="1">
          <mxGeometry x="25" y="-300" width="80" height="50" as="geometry" />
        </mxCell>
        <mxCell id="iN3SEvdDUoiOJjXTP8e4-50" value="NUMERO ID" style="ellipse;whiteSpace=wrap;html=1;" vertex="1" parent="1">
          <mxGeometry x="-40" y="-385" width="100" height="50" as="geometry" />
        </mxCell>
        <mxCell id="iN3SEvdDUoiOJjXTP8e4-51" value="PROCESOS" style="ellipse;whiteSpace=wrap;html=1;" vertex="1" parent="1">
          <mxGeometry x="450" y="-300" width="85" height="50" as="geometry" />
        </mxCell>
        <mxCell id="iN3SEvdDUoiOJjXTP8e4-53" value="FECHAS" style="ellipse;whiteSpace=wrap;html=1;" vertex="1" parent="1">
          <mxGeometry x="595" y="-400" width="80" height="60" as="geometry" />
        </mxCell>
        <mxCell id="iN3SEvdDUoiOJjXTP8e4-54" value="IDEAS" style="ellipse;whiteSpace=wrap;html=1;" vertex="1" parent="1">
          <mxGeometry x="572.5" y="-310" width="75" height="50" as="geometry" />
        </mxCell>
        <mxCell id="iN3SEvdDUoiOJjXTP8e4-60" style="edgeStyle=orthogonalEdgeStyle;rounded=0;orthogonalLoop=1;jettySize=auto;html=1;exitX=1;exitY=0.5;exitDx=0;exitDy=0;entryX=0.046;entryY=0.686;entryDx=0;entryDy=0;entryPerimeter=0;" edge="1" parent="1" source="iN3SEvdDUoiOJjXTP8e4-45" target="iN3SEvdDUoiOJjXTP8e4-53">
          <mxGeometry relative="1" as="geometry" />
        </mxCell>
        <mxCell id="iN3SEvdDUoiOJjXTP8e4-64" style="edgeStyle=orthogonalEdgeStyle;rounded=0;orthogonalLoop=1;jettySize=auto;html=1;exitX=0.5;exitY=1;exitDx=0;exitDy=0;entryX=0.305;entryY=0.08;entryDx=0;entryDy=0;entryPerimeter=0;" edge="1" parent="1" source="iN3SEvdDUoiOJjXTP8e4-46" target="iN3SEvdDUoiOJjXTP8e4-48">
          <mxGeometry relative="1" as="geometry" />
        </mxCell>
        <mxCell id="iN3SEvdDUoiOJjXTP8e4-65" style="edgeStyle=orthogonalEdgeStyle;rounded=0;orthogonalLoop=1;jettySize=auto;html=1;exitX=0;exitY=1;exitDx=0;exitDy=0;entryX=0.743;entryY=0.023;entryDx=0;entryDy=0;entryPerimeter=0;" edge="1" parent="1" source="iN3SEvdDUoiOJjXTP8e4-46" target="iN3SEvdDUoiOJjXTP8e4-49">
          <mxGeometry relative="1" as="geometry" />
        </mxCell>
        <mxCell id="iN3SEvdDUoiOJjXTP8e4-77" style="edgeStyle=orthogonalEdgeStyle;rounded=0;orthogonalLoop=1;jettySize=auto;html=1;exitX=0;exitY=0.5;exitDx=0;exitDy=0;entryX=1;entryY=0.5;entryDx=0;entryDy=0;" edge="1" parent="1" source="iN3SEvdDUoiOJjXTP8e4-67" target="iN3SEvdDUoiOJjXTP8e4-72">
          <mxGeometry relative="1" as="geometry" />
        </mxCell>
        <mxCell id="iN3SEvdDUoiOJjXTP8e4-79" style="edgeStyle=orthogonalEdgeStyle;rounded=0;orthogonalLoop=1;jettySize=auto;html=1;exitX=1;exitY=0.5;exitDx=0;exitDy=0;" edge="1" parent="1" source="iN3SEvdDUoiOJjXTP8e4-67" target="iN3SEvdDUoiOJjXTP8e4-69">
          <mxGeometry relative="1" as="geometry" />
        </mxCell>
        <mxCell id="iN3SEvdDUoiOJjXTP8e4-86" style="edgeStyle=orthogonalEdgeStyle;rounded=0;orthogonalLoop=1;jettySize=auto;html=1;exitX=0.5;exitY=1;exitDx=0;exitDy=0;entryX=0.5;entryY=0;entryDx=0;entryDy=0;" edge="1" parent="1" source="iN3SEvdDUoiOJjXTP8e4-67" target="iN3SEvdDUoiOJjXTP8e4-70">
          <mxGeometry relative="1" as="geometry" />
        </mxCell>
        <mxCell id="iN3SEvdDUoiOJjXTP8e4-67" value="CLIENTE" style="rounded=0;whiteSpace=wrap;html=1;" vertex="1" parent="1">
          <mxGeometry x="-600" y="-360" width="120" height="60" as="geometry" />
        </mxCell>
        <mxCell id="iN3SEvdDUoiOJjXTP8e4-82" style="edgeStyle=orthogonalEdgeStyle;rounded=0;orthogonalLoop=1;jettySize=auto;html=1;exitX=0;exitY=0.5;exitDx=0;exitDy=0;entryX=1;entryY=0.5;entryDx=0;entryDy=0;" edge="1" parent="1" source="iN3SEvdDUoiOJjXTP8e4-68" target="iN3SEvdDUoiOJjXTP8e4-69">
          <mxGeometry relative="1" as="geometry" />
        </mxCell>
        <mxCell id="iN3SEvdDUoiOJjXTP8e4-83" style="edgeStyle=orthogonalEdgeStyle;rounded=0;orthogonalLoop=1;jettySize=auto;html=1;exitX=1;exitY=0.5;exitDx=0;exitDy=0;entryX=0.5;entryY=0;entryDx=0;entryDy=0;" edge="1" parent="1" source="iN3SEvdDUoiOJjXTP8e4-68" target="iN3SEvdDUoiOJjXTP8e4-74">
          <mxGeometry relative="1" as="geometry" />
        </mxCell>
        <mxCell id="iN3SEvdDUoiOJjXTP8e4-85" style="edgeStyle=orthogonalEdgeStyle;rounded=0;orthogonalLoop=1;jettySize=auto;html=1;exitX=0.25;exitY=1;exitDx=0;exitDy=0;" edge="1" parent="1" source="iN3SEvdDUoiOJjXTP8e4-68" target="iN3SEvdDUoiOJjXTP8e4-75">
          <mxGeometry relative="1" as="geometry" />
        </mxCell>
        <mxCell id="iN3SEvdDUoiOJjXTP8e4-68" value="PEDIDOS" style="rounded=0;whiteSpace=wrap;html=1;" vertex="1" parent="1">
          <mxGeometry x="-260" y="-360" width="120" height="50" as="geometry" />
        </mxCell>
        <mxCell id="iN3SEvdDUoiOJjXTP8e4-80" style="edgeStyle=orthogonalEdgeStyle;rounded=0;orthogonalLoop=1;jettySize=auto;html=1;exitX=0;exitY=0.5;exitDx=0;exitDy=0;entryX=1;entryY=0.5;entryDx=0;entryDy=0;" edge="1" parent="1" source="iN3SEvdDUoiOJjXTP8e4-69" target="iN3SEvdDUoiOJjXTP8e4-67">
          <mxGeometry relative="1" as="geometry" />
        </mxCell>
        <mxCell id="iN3SEvdDUoiOJjXTP8e4-81" style="edgeStyle=orthogonalEdgeStyle;rounded=0;orthogonalLoop=1;jettySize=auto;html=1;exitX=1;exitY=0.5;exitDx=0;exitDy=0;entryX=0;entryY=0.5;entryDx=0;entryDy=0;" edge="1" parent="1" source="iN3SEvdDUoiOJjXTP8e4-69" target="iN3SEvdDUoiOJjXTP8e4-68">
          <mxGeometry relative="1" as="geometry" />
        </mxCell>
        <mxCell id="iN3SEvdDUoiOJjXTP8e4-69" value="TIENE" style="rhombus;whiteSpace=wrap;html=1;" vertex="1" parent="1">
          <mxGeometry x="-413" y="-370" width="83" height="80" as="geometry" />
        </mxCell>
        <mxCell id="iN3SEvdDUoiOJjXTP8e4-70" value="DINERO" style="ellipse;whiteSpace=wrap;html=1;" vertex="1" parent="1">
          <mxGeometry x="-590" y="-247.5" width="90" height="60" as="geometry" />
        </mxCell>
        <mxCell id="iN3SEvdDUoiOJjXTP8e4-71" value="NOMBRE" style="ellipse;whiteSpace=wrap;html=1;" vertex="1" parent="1">
          <mxGeometry x="-710" y="-270" width="90" height="65" as="geometry" />
        </mxCell>
        <mxCell id="iN3SEvdDUoiOJjXTP8e4-72" value="DIRECCION" style="ellipse;whiteSpace=wrap;html=1;" vertex="1" parent="1">
          <mxGeometry x="-750" y="-355" width="100" height="65" as="geometry" />
        </mxCell>
        <mxCell id="iN3SEvdDUoiOJjXTP8e4-73" value="DESTINO" style="ellipse;whiteSpace=wrap;html=1;" vertex="1" parent="1">
          <mxGeometry x="-200" y="-260" width="100" height="70" as="geometry" />
        </mxCell>
        <mxCell id="iN3SEvdDUoiOJjXTP8e4-74" value="NUMERO" style="ellipse;whiteSpace=wrap;html=1;" vertex="1" parent="1">
          <mxGeometry x="-130" y="-315" width="90" height="60" as="geometry" />
        </mxCell>
        <mxCell id="iN3SEvdDUoiOJjXTP8e4-75" value="CONTENIDO" style="ellipse;whiteSpace=wrap;html=1;" vertex="1" parent="1">
          <mxGeometry x="-310" y="-247.5" width="90" height="70" as="geometry" />
        </mxCell>
        <mxCell id="iN3SEvdDUoiOJjXTP8e4-84" style="edgeStyle=orthogonalEdgeStyle;rounded=0;orthogonalLoop=1;jettySize=auto;html=1;exitX=0.75;exitY=1;exitDx=0;exitDy=0;entryX=0.3;entryY=0;entryDx=0;entryDy=0;entryPerimeter=0;" edge="1" parent="1" source="iN3SEvdDUoiOJjXTP8e4-68" target="iN3SEvdDUoiOJjXTP8e4-73">
          <mxGeometry relative="1" as="geometry" />
        </mxCell>
        <mxCell id="iN3SEvdDUoiOJjXTP8e4-87" style="edgeStyle=orthogonalEdgeStyle;rounded=0;orthogonalLoop=1;jettySize=auto;html=1;exitX=0;exitY=1;exitDx=0;exitDy=0;entryX=0.778;entryY=0.011;entryDx=0;entryDy=0;entryPerimeter=0;" edge="1" parent="1" source="iN3SEvdDUoiOJjXTP8e4-67" target="iN3SEvdDUoiOJjXTP8e4-71">
          <mxGeometry relative="1" as="geometry" />
        </mxCell>
        <mxCell id="iN3SEvdDUoiOJjXTP8e4-101" style="edgeStyle=orthogonalEdgeStyle;rounded=0;orthogonalLoop=1;jettySize=auto;html=1;exitX=0;exitY=0.5;exitDx=0;exitDy=0;entryX=1;entryY=0.5;entryDx=0;entryDy=0;" edge="1" parent="1" source="iN3SEvdDUoiOJjXTP8e4-88" target="iN3SEvdDUoiOJjXTP8e4-90">
          <mxGeometry relative="1" as="geometry" />
        </mxCell>
        <mxCell id="iN3SEvdDUoiOJjXTP8e4-104" style="edgeStyle=orthogonalEdgeStyle;rounded=0;orthogonalLoop=1;jettySize=auto;html=1;exitX=0.25;exitY=1;exitDx=0;exitDy=0;entryX=0.5;entryY=0;entryDx=0;entryDy=0;" edge="1" parent="1" source="iN3SEvdDUoiOJjXTP8e4-88" target="iN3SEvdDUoiOJjXTP8e4-96">
          <mxGeometry relative="1" as="geometry" />
        </mxCell>
        <mxCell id="iN3SEvdDUoiOJjXTP8e4-106" style="edgeStyle=orthogonalEdgeStyle;rounded=0;orthogonalLoop=1;jettySize=auto;html=1;exitX=1;exitY=0.5;exitDx=0;exitDy=0;" edge="1" parent="1" source="iN3SEvdDUoiOJjXTP8e4-88" target="iN3SEvdDUoiOJjXTP8e4-94">
          <mxGeometry relative="1" as="geometry" />
        </mxCell>
        <mxCell id="iN3SEvdDUoiOJjXTP8e4-88" value="CANCIONES" style="rounded=0;whiteSpace=wrap;html=1;" vertex="1" parent="1">
          <mxGeometry x="-280" y="-75" width="120" height="60" as="geometry" />
        </mxCell>
        <mxCell id="iN3SEvdDUoiOJjXTP8e4-97" style="edgeStyle=orthogonalEdgeStyle;rounded=0;orthogonalLoop=1;jettySize=auto;html=1;exitX=0;exitY=0.5;exitDx=0;exitDy=0;entryX=1;entryY=0.5;entryDx=0;entryDy=0;" edge="1" parent="1" source="iN3SEvdDUoiOJjXTP8e4-89" target="iN3SEvdDUoiOJjXTP8e4-93">
          <mxGeometry relative="1" as="geometry" />
        </mxCell>
        <mxCell id="iN3SEvdDUoiOJjXTP8e4-99" style="edgeStyle=orthogonalEdgeStyle;rounded=0;orthogonalLoop=1;jettySize=auto;html=1;exitX=1;exitY=0.5;exitDx=0;exitDy=0;entryX=0;entryY=0.5;entryDx=0;entryDy=0;" edge="1" parent="1" source="iN3SEvdDUoiOJjXTP8e4-89" target="iN3SEvdDUoiOJjXTP8e4-90">
          <mxGeometry relative="1" as="geometry" />
        </mxCell>
        <mxCell id="iN3SEvdDUoiOJjXTP8e4-102" style="edgeStyle=orthogonalEdgeStyle;rounded=0;orthogonalLoop=1;jettySize=auto;html=1;exitX=0;exitY=1;exitDx=0;exitDy=0;entryX=1;entryY=0;entryDx=0;entryDy=0;" edge="1" parent="1" source="iN3SEvdDUoiOJjXTP8e4-89" target="iN3SEvdDUoiOJjXTP8e4-92">
          <mxGeometry relative="1" as="geometry" />
        </mxCell>
        <mxCell id="iN3SEvdDUoiOJjXTP8e4-103" style="edgeStyle=orthogonalEdgeStyle;rounded=0;orthogonalLoop=1;jettySize=auto;html=1;exitX=0.5;exitY=1;exitDx=0;exitDy=0;" edge="1" parent="1" source="iN3SEvdDUoiOJjXTP8e4-89" target="iN3SEvdDUoiOJjXTP8e4-91">
          <mxGeometry relative="1" as="geometry" />
        </mxCell>
        <mxCell id="iN3SEvdDUoiOJjXTP8e4-89" value="GENRO MUSICAL" style="rounded=0;whiteSpace=wrap;html=1;" vertex="1" parent="1">
          <mxGeometry x="-620" y="-75" width="120" height="60" as="geometry" />
        </mxCell>
        <mxCell id="iN3SEvdDUoiOJjXTP8e4-98" style="edgeStyle=orthogonalEdgeStyle;rounded=0;orthogonalLoop=1;jettySize=auto;html=1;exitX=0;exitY=0.5;exitDx=0;exitDy=0;entryX=1;entryY=0.5;entryDx=0;entryDy=0;" edge="1" parent="1" source="iN3SEvdDUoiOJjXTP8e4-90" target="iN3SEvdDUoiOJjXTP8e4-89">
          <mxGeometry relative="1" as="geometry" />
        </mxCell>
        <mxCell id="iN3SEvdDUoiOJjXTP8e4-100" style="edgeStyle=orthogonalEdgeStyle;rounded=0;orthogonalLoop=1;jettySize=auto;html=1;exitX=1;exitY=0.5;exitDx=0;exitDy=0;entryX=0;entryY=0.5;entryDx=0;entryDy=0;" edge="1" parent="1" source="iN3SEvdDUoiOJjXTP8e4-90" target="iN3SEvdDUoiOJjXTP8e4-88">
          <mxGeometry relative="1" as="geometry" />
        </mxCell>
        <mxCell id="iN3SEvdDUoiOJjXTP8e4-90" value="HAY" style="rhombus;whiteSpace=wrap;html=1;" vertex="1" parent="1">
          <mxGeometry x="-420" y="-85" width="80" height="80" as="geometry" />
        </mxCell>
        <mxCell id="iN3SEvdDUoiOJjXTP8e4-91" value="MISMO PUBLICO" style="ellipse;whiteSpace=wrap;html=1;" vertex="1" parent="1">
          <mxGeometry x="-620" y="80" width="120" height="70" as="geometry" />
        </mxCell>
        <mxCell id="iN3SEvdDUoiOJjXTP8e4-92" value="LETRAS SIMILARES" style="ellipse;whiteSpace=wrap;html=1;" vertex="1" parent="1">
          <mxGeometry x="-750" y="20" width="120" height="80" as="geometry" />
        </mxCell>
        <mxCell id="iN3SEvdDUoiOJjXTP8e4-93" value="TIPO DE INSTRUMENTOS" style="ellipse;whiteSpace=wrap;html=1;" vertex="1" parent="1">
          <mxGeometry x="-790" y="-85" width="120" height="80" as="geometry" />
        </mxCell>
        <mxCell id="iN3SEvdDUoiOJjXTP8e4-94" value="DURACION" style="ellipse;whiteSpace=wrap;html=1;" vertex="1" parent="1">
          <mxGeometry x="-120" y="-40" width="95" height="60" as="geometry" />
        </mxCell>
        <mxCell id="iN3SEvdDUoiOJjXTP8e4-95" value="TEMATICA" style="ellipse;whiteSpace=wrap;html=1;" vertex="1" parent="1">
          <mxGeometry x="-180" y="70" width="90" height="60" as="geometry" />
        </mxCell>
        <mxCell id="iN3SEvdDUoiOJjXTP8e4-96" value="CANTANTES" style="ellipse;whiteSpace=wrap;html=1;" vertex="1" parent="1">
          <mxGeometry x="-290" y="55" width="90" height="70" as="geometry" />
        </mxCell>
        <mxCell id="iN3SEvdDUoiOJjXTP8e4-105" style="edgeStyle=orthogonalEdgeStyle;rounded=0;orthogonalLoop=1;jettySize=auto;html=1;exitX=1;exitY=1;exitDx=0;exitDy=0;entryX=0.385;entryY=0.114;entryDx=0;entryDy=0;entryPerimeter=0;" edge="1" parent="1" source="iN3SEvdDUoiOJjXTP8e4-88" target="iN3SEvdDUoiOJjXTP8e4-95">
          <mxGeometry relative="1" as="geometry" />
        </mxCell>
        <mxCell id="iN3SEvdDUoiOJjXTP8e4-110" value="1- M" style="shape=callout;whiteSpace=wrap;html=1;perimeter=calloutPerimeter;" vertex="1" parent="1">
          <mxGeometry x="-440" y="-140" width="100" height="65" as="geometry" />
        </mxCell>
        <mxCell id="iN3SEvdDUoiOJjXTP8e4-111" value="1-M" style="shape=callout;whiteSpace=wrap;html=1;perimeter=calloutPerimeter;" vertex="1" parent="1">
          <mxGeometry x="-410" y="-435" width="97" height="75" as="geometry" />
        </mxCell>
        <mxCell id="iN3SEvdDUoiOJjXTP8e4-112" value="M-M" style="shape=callout;whiteSpace=wrap;html=1;perimeter=calloutPerimeter;" vertex="1" parent="1">
          <mxGeometry x="290" y="-465" width="100" height="65" as="geometry" />
        </mxCell>
        <mxCell id="iN3SEvdDUoiOJjXTP8e4-113" value="M.1" style="shape=callout;whiteSpace=wrap;html=1;perimeter=calloutPerimeter;" vertex="1" parent="1">
          <mxGeometry x="280" y="-252.5" width="110" height="70" as="geometry" />
        </mxCell>
        <mxCell id="iN3SEvdDUoiOJjXTP8e4-114" value="M-1" style="shape=callout;whiteSpace=wrap;html=1;perimeter=calloutPerimeter;" vertex="1" parent="1">
          <mxGeometry x="287.5" y="-10" width="95" height="70" as="geometry" />
        </mxCell>
      </root>
    </mxGraphModel>
  </diagram>
</mxfile>
